{
	"asset":{
		"generator":"Khronos glTF Blender I/O v3.5.30",
		"version":"2.0"
	},
	"scene":0,
	"scenes":[
		{
			"name":"Scene",
			"nodes":[
				0
			]
		}
	],
	"nodes":[
		{
			"mesh":0,
			"name":"object_1",
			"rotation":[
				0.7071068286895752,
				0,
				0,
				0.7071068286895752
			]
		}
	],
	"materials":[
		{
			"doubleSided":true,
			"name":"Material.001",
			"pbrMetallicRoughness":{
				"baseColorFactor":[
					0.013670962303876877,
					0.013670962303876877,
					0.013670962303876877,
					1
				],
				"metallicFactor":0.8519637584686279
			}
		}
	],
	"meshes":[
		{
			"name":"object_1",
			"primitives":[
				{
					"attributes":{
						"POSITION":0,
						"TEXCOORD_0":1,
						"NORMAL":2
					},
					"indices":3,
					"material":0
				}
			]
		}
	],
	"accessors":[
		{
			"bufferView":0,
			"componentType":5126,
			"count":189784,
			"max":[
				26.99092674255371,
				43.81700897216797,
				107.68316650390625
			],
			"min":[
				-27.001426696777344,
				-19.445383071899414,
				-107.68316650390625
			],
			"type":"VEC3"
		},
		{
			"bufferView":1,
			"componentType":5126,
			"count":189784,
			"type":"VEC2"
		},
		{
			"bufferView":2,
			"componentType":5126,
			"count":189784,
			"type":"VEC3"
		},
		{
			"bufferView":3,
			"componentType":5125,
			"count":284760,
			"type":"SCALAR"
		}
	],
	"bufferViews":[
		{
			"buffer":0,
			"byteLength":2277408,
			"byteOffset":0,
			"target":34962
		},
		{
			"buffer":0,
			"byteLength":1518272,
			"byteOffset":2277408,
			"target":34962
		},
		{
			"buffer":0,
			"byteLength":2277408,
			"byteOffset":3795680,
			"target":34962
		},
		{
			"buffer":0,
			"byteLength":1139040,
			"byteOffset":6073088,
			"target":34963
		}
	],
	"buffers":[
		{
			"byteLength":7212128,
			"uri":"scene.bin"
		}
	]
}
