{
	"asset":{
		"generator":"Khronos glTF Blender I/O v3.5.30",
		"version":"2.0"
	},
	"scene":0,
	"scenes":[
		{
			"name":"Scene",
			"nodes":[
				0,
				1,
				2,
				3
			]
		}
	],
	"nodes":[
		{
			"mesh":0,
			"name":"hans gugelot",
			"scale":[
				1.3964601755142212,
				1.3964601755142212,
				1.3964601755142212
			]
		},
		{
			"mesh":1,
			"name":"object_1",
			"rotation":[
				0.2770695090293884,
				0.5688694715499878,
				0.6470625400543213,
				0.4253588318824768
			],
			"translation":[
				0,
				0,
				213.15538024902344
			]
		},
		{
			"mesh":2,
			"name":"object_2",
			"rotation":[
				0.5663159489631653,
				-0.07651792466640472,
				-0.08703556656837463,
				0.8160000443458557
			],
			"translation":[
				0,
				0,
				213.15538024902344
			]
		},
		{
			"mesh":3,
			"name":"object_2.001",
			"rotation":[
				0.07923822849988937,
				-0.655719518661499,
				-0.7458503842353821,
				0.08637396991252899
			],
			"scale":[
				0.7910085916519165,
				0.7910085320472717,
				0.791008472442627
			],
			"translation":[
				-183.2672882080078,
				0,
				213.15538024902344
			]
		}
	],
	"materials":[
		{
			"doubleSided":true,
			"name":"Material.001",
			"pbrMetallicRoughness":{
				"baseColorFactor":[
					0.6685354113578796,
					0.6685354113578796,
					0.6685354113578796,
					1
				],
				"metallicFactor":0.5981873273849487,
				"roughnessFactor":0.07854984700679779
			}
		},
		{
			"doubleSided":true,
			"name":"Material.006",
			"pbrMetallicRoughness":{
				"baseColorFactor":[
					0.026991482824087143,
					0.026991482824087143,
					0.026991482824087143,
					1
				],
				"metallicFactor":0,
				"roughnessFactor":0.5
			}
		},
		{
			"doubleSided":true,
			"name":"Material.005",
			"pbrMetallicRoughness":{
				"baseColorFactor":[
					0.010140771977603436,
					0.010140771977603436,
					0.010140771977603436,
					1
				],
				"metallicFactor":0,
				"roughnessFactor":0.5
			}
		}
	],
	"meshes":[
		{
			"name":"hans gugelot",
			"primitives":[
				{
					"attributes":{
						"POSITION":0,
						"NORMAL":1
					},
					"indices":2,
					"material":0
				}
			]
		},
		{
			"name":"object_1",
			"primitives":[
				{
					"attributes":{
						"POSITION":3,
						"TEXCOORD_0":4,
						"NORMAL":5
					},
					"indices":6,
					"material":1
				}
			]
		},
		{
			"name":"object_2",
			"primitives":[
				{
					"attributes":{
						"POSITION":7,
						"TEXCOORD_0":8,
						"NORMAL":9
					},
					"indices":10,
					"material":2
				}
			]
		},
		{
			"name":"object_2.001",
			"primitives":[
				{
					"attributes":{
						"POSITION":11,
						"TEXCOORD_0":12,
						"NORMAL":13
					},
					"indices":10,
					"material":2
				}
			]
		}
	],
	"accessors":[
		{
			"bufferView":0,
			"componentType":5126,
			"count":73855,
			"max":[
				263.7558898925781,
				50.84745788574219,
				25.09900665283203
			],
			"min":[
				-263.7558898925781,
				-0.49435028433799744,
				-25.09900665283203
			],
			"type":"VEC3"
		},
		{
			"bufferView":1,
			"componentType":5126,
			"count":73855,
			"type":"VEC3"
		},
		{
			"bufferView":2,
			"componentType":5125,
			"count":114120,
			"type":"SCALAR"
		},
		{
			"bufferView":3,
			"componentType":5126,
			"count":7680,
			"max":[
				756.5458984375,
				525.6539916992188,
				842.320556640625
			],
			"min":[
				-803.8170166015625,
				-601.6871337890625,
				-730.158935546875
			],
			"type":"VEC3"
		},
		{
			"bufferView":4,
			"componentType":5126,
			"count":7680,
			"type":"VEC2"
		},
		{
			"bufferView":5,
			"componentType":5126,
			"count":7680,
			"type":"VEC3"
		},
		{
			"bufferView":6,
			"componentType":5123,
			"count":11520,
			"type":"SCALAR"
		},
		{
			"bufferView":7,
			"componentType":5126,
			"count":7680,
			"max":[
				506.5303649902344,
				284.1693115234375,
				502.0927429199219
			],
			"min":[
				-466.5535888671875,
				-406.1760559082031,
				-504.86688232421875
			],
			"type":"VEC3"
		},
		{
			"bufferView":8,
			"componentType":5126,
			"count":7680,
			"type":"VEC2"
		},
		{
			"bufferView":9,
			"componentType":5126,
			"count":7680,
			"type":"VEC3"
		},
		{
			"bufferView":10,
			"componentType":5123,
			"count":11520,
			"type":"SCALAR"
		},
		{
			"bufferView":11,
			"componentType":5126,
			"count":7680,
			"max":[
				506.5231628417969,
				284.15966796875,
				502.08636474609375
			],
			"min":[
				-466.5438232421875,
				-406.1668701171875,
				-504.8598937988281
			],
			"type":"VEC3"
		},
		{
			"bufferView":12,
			"componentType":5126,
			"count":7680,
			"type":"VEC2"
		},
		{
			"bufferView":13,
			"componentType":5126,
			"count":7680,
			"type":"VEC3"
		}
	],
	"bufferViews":[
		{
			"buffer":0,
			"byteLength":886260,
			"byteOffset":0,
			"target":34962
		},
		{
			"buffer":0,
			"byteLength":886260,
			"byteOffset":886260,
			"target":34962
		},
		{
			"buffer":0,
			"byteLength":456480,
			"byteOffset":1772520,
			"target":34963
		},
		{
			"buffer":0,
			"byteLength":92160,
			"byteOffset":2229000,
			"target":34962
		},
		{
			"buffer":0,
			"byteLength":61440,
			"byteOffset":2321160,
			"target":34962
		},
		{
			"buffer":0,
			"byteLength":92160,
			"byteOffset":2382600,
			"target":34962
		},
		{
			"buffer":0,
			"byteLength":23040,
			"byteOffset":2474760,
			"target":34963
		},
		{
			"buffer":0,
			"byteLength":92160,
			"byteOffset":2497800,
			"target":34962
		},
		{
			"buffer":0,
			"byteLength":61440,
			"byteOffset":2589960,
			"target":34962
		},
		{
			"buffer":0,
			"byteLength":92160,
			"byteOffset":2651400,
			"target":34962
		},
		{
			"buffer":0,
			"byteLength":23040,
			"byteOffset":2743560,
			"target":34963
		},
		{
			"buffer":0,
			"byteLength":92160,
			"byteOffset":2766600,
			"target":34962
		},
		{
			"buffer":0,
			"byteLength":61440,
			"byteOffset":2858760,
			"target":34962
		},
		{
			"buffer":0,
			"byteLength":92160,
			"byteOffset":2920200,
			"target":34962
		}
	],
	"buffers":[
		{
			"byteLength":3012360,
			"uri":"scene.bin"
		}
	]
}
