{
	"asset":{
		"generator":"Khronos glTF Blender I/O v3.5.30",
		"version":"2.0"
	},
	"scene":0,
	"scenes":[
		{
			"name":"Scene",
			"nodes":[
				0
			]
		}
	],
	"nodes":[
		{
			"mesh":0,
			"name":"object_1",
			"rotation":[
				0.7071068286895752,
				0,
				0,
				0.7071068286895752
			]
		}
	],
	"materials":[
		{
			"doubleSided":true,
			"name":"Material.001",
			"pbrMetallicRoughness":{
				"baseColorFactor":[
					0.014492359943687916,
					0.014492359943687916,
					0.014492359943687916,
					1
				],
				"metallicFactor":0.8157099485397339
			}
		}
	],
	"meshes":[
		{
			"name":"object_1.001",
			"primitives":[
				{
					"attributes":{
						"POSITION":0,
						"TEXCOORD_0":1,
						"NORMAL":2
					},
					"indices":3,
					"material":0
				}
			]
		}
	],
	"accessors":[
		{
			"bufferView":0,
			"componentType":5126,
			"count":7552,
			"max":[
				93.48249053955078,
				94.23249053955078,
				94.23248291015625
			],
			"min":[
				-93.48248291015625,
				-94.23248291015625,
				-94.23248291015625
			],
			"type":"VEC3"
		},
		{
			"bufferView":1,
			"componentType":5126,
			"count":7552,
			"type":"VEC2"
		},
		{
			"bufferView":2,
			"componentType":5126,
			"count":7552,
			"type":"VEC3"
		},
		{
			"bufferView":3,
			"componentType":5123,
			"count":11718,
			"type":"SCALAR"
		}
	],
	"bufferViews":[
		{
			"buffer":0,
			"byteLength":90624,
			"byteOffset":0,
			"target":34962
		},
		{
			"buffer":0,
			"byteLength":60416,
			"byteOffset":90624,
			"target":34962
		},
		{
			"buffer":0,
			"byteLength":90624,
			"byteOffset":151040,
			"target":34962
		},
		{
			"buffer":0,
			"byteLength":23436,
			"byteOffset":241664,
			"target":34963
		}
	],
	"buffers":[
		{
			"byteLength":265100,
			"uri":"scene.bin"
		}
	]
}
