{
	"asset":{
		"generator":"Khronos glTF Blender I/O v3.5.30",
		"version":"2.0"
	},
	"scene":0,
	"scenes":[
		{
			"name":"Scene",
			"nodes":[
				0
			]
		}
	],
	"nodes":[
		{
			"mesh":0,
			"name":"sk4",
			"rotation":[
				0,
				-0.7071068286895752,
				0.7071068286895752,
				1.1520234011186403e-07
			],
			"translation":[
				7.623424530029297,
				0,
				3.9468908309936523
			]
		}
	],
	"materials":[
		{
			"doubleSided":true,
			"name":"Material.001",
			"pbrMetallicRoughness":{
				"baseColorFactor":[
					0.004960495512932539,
					0.004960495512932539,
					0.004960495512932539,
					1
				]
			}
		}
	],
	"meshes":[
		{
			"name":"sk4",
			"primitives":[
				{
					"attributes":{
						"POSITION":0,
						"TEXCOORD_0":1,
						"NORMAL":2
					},
					"indices":3,
					"material":0
				}
			]
		}
	],
	"accessors":[
		{
			"bufferView":0,
			"componentType":5126,
			"count":123758,
			"max":[
				182.01278686523438,
				133.9389190673828,
				111.16539764404297
			],
			"min":[
				-169.50596618652344,
				-61.070133209228516,
				-144.5041046142578
			],
			"type":"VEC3"
		},
		{
			"bufferView":1,
			"componentType":5126,
			"count":123758,
			"type":"VEC2"
		},
		{
			"bufferView":2,
			"componentType":5126,
			"count":123758,
			"type":"VEC3"
		},
		{
			"bufferView":3,
			"componentType":5125,
			"count":220248,
			"type":"SCALAR"
		}
	],
	"bufferViews":[
		{
			"buffer":0,
			"byteLength":1485096,
			"byteOffset":0,
			"target":34962
		},
		{
			"buffer":0,
			"byteLength":990064,
			"byteOffset":1485096,
			"target":34962
		},
		{
			"buffer":0,
			"byteLength":1485096,
			"byteOffset":2475160,
			"target":34962
		},
		{
			"buffer":0,
			"byteLength":880992,
			"byteOffset":3960256,
			"target":34963
		}
	],
	"buffers":[
		{
			"byteLength":4841248,
			"uri":"scene.bin"
		}
	]
}
